<?xml version="1.0" standalone="no"?>
<!DOCTYPE svg PUBLIC "-//W3C//DTD SVG 20010904//EN"
 "http://www.w3.org/TR/2001/REC-SVG-20010904/DTD/svg10.dtd">
<svg version="1.0" xmlns="http://www.w3.org/2000/svg"
 width="880.000000pt" height="660.000000pt" viewBox="0 0 880.000000 660.000000"
 preserveAspectRatio="xMidYMid meet">

<g transform="translate(0.000000,660.000000) scale(0.100000,-0.100000)"
fill="#000000" stroke="none">
<path d="M700 3900 l0 -860 -25 0 -25 0 0 -385 0 -385 1170 0 1170 0 0 385 c0
378 0 385 -20 385 -20 0 -20 7 -20 860 l0 860 -1125 0 -1125 0 0 -860z"/>
<path d="M4470 4276 c0 -2 7 -7 16 -10 8 -3 12 -2 9 4 -6 10 -25 14 -25 6z"/>
<path d="M4585 4270 c4 -6 -7 -10 -25 -10 -17 0 -46 -6 -65 -14 -18 -8 -37
-11 -41 -8 -4 4 -4 1 1 -7 5 -9 3 -12 -5 -9 -8 2 -22 -4 -32 -14 -25 -25 -22
-35 4 -12 l22 19 -22 -38 c-23 -40 -31 -132 -12 -139 6 -2 12 -13 13 -25 0
-12 5 -19 9 -17 13 8 9 -11 -4 -26 -11 -12 -10 -12 3 -2 13 10 22 8 45 -10 37
-29 45 -41 33 -49 -6 -4 -4 -9 7 -13 9 -3 19 -4 22 -1 3 3 -1 5 -9 6 -8 1 -3
5 11 9 24 8 24 8 3 9 -41 2 -24 17 20 17 59 2 96 8 91 15 -6 11 24 31 35 24 7
-3 8 0 5 9 -3 9 -1 16 5 16 6 0 11 8 11 18 0 13 2 14 9 4 5 -8 7 20 5 67 -2
77 -4 81 -38 116 -19 19 -40 35 -46 35 -6 0 -9 4 -6 9 4 5 -4 7 -16 3 -13 -3
-19 -1 -15 5 4 6 0 14 -9 17 -8 3 -12 2 -9 -4z"/>
<path d="M4638 4273 c17 -3 22 -9 18 -21 -5 -15 -5 -15 6 -1 7 9 19 14 26 12
6 -3 12 0 12 5 0 5 -19 9 -42 9 -24 0 -33 -2 -20 -4z"/>
<path d="M4720 4248 c0 -23 3 -29 9 -19 8 12 4 51 -5 51 -2 0 -4 -15 -4 -32z"/>
<path d="M5400 4268 c-6 -192 3 -1345 10 -1363 6 -17 17 -25 32 -24 l23 0 -22
9 c-12 5 -25 19 -28 32 -3 13 -4 312 -3 666 2 423 0 642 -7 642 -5 0 -3 6 6
13 16 12 15 37 -2 37 -5 0 -9 -6 -9 -12z"/>
<path d="M5448 4241 c2 -27 1 -32 -7 -21 -9 13 -11 13 -11 -2 0 -10 5 -18 10
-18 7 0 10 -216 10 -646 l-1 -646 123 1 c93 2 126 5 136 16 8 10 8 12 0 5 -19
-16 -27 -12 -21 10 5 20 6 20 47 -3 22 -12 43 -25 46 -29 3 -4 38 -12 77 -19
54 -9 87 -9 139 0 38 7 77 13 86 14 9 0 15 3 13 5 -4 4 12 14 115 69 25 13 43
25 41 26 -3 1 1 11 7 22 12 20 13 20 28 -2 9 -13 20 -23 24 -23 10 0 32 51 25
58 -3 4 -8 -4 -12 -16 -6 -26 -10 -27 -31 -5 -12 12 -13 18 -4 21 6 2 12 9 12
15 0 6 6 18 13 26 28 33 58 125 71 216 7 52 10 98 6 102 -14 15 -19 82 -7 90
32 20 35 11 33 -116 -1 -69 1 -205 4 -301 4 -116 6 -24 6 270 0 245 -2 384 -3
310 -2 -81 -8 -139 -15 -145 -8 -7 -9 -4 -5 13 7 30 -7 28 -22 -4 -6 -15 -14
-24 -17 -21 -3 3 -1 15 5 26 9 17 9 20 -3 15 -16 -6 -60 81 -50 98 4 7 9 6 14
-1 3 -7 7 3 7 21 0 29 -1 30 -10 10 -6 -12 -17 -22 -25 -22 -9 0 -12 3 -9 7 4
3 -1 12 -11 19 -9 7 -17 17 -17 23 0 6 -3 10 -6 9 -10 -5 -39 24 -33 33 3 5
-3 6 -12 2 -13 -5 -16 -3 -11 9 3 10 0 19 -9 22 -9 3 -12 1 -9 -4 11 -17 -5
-11 -49 18 -22 15 -56 29 -75 30 -19 1 -40 7 -47 13 -7 6 -18 8 -24 4 -6 -4
-16 -2 -23 3 -11 9 -78 1 -186 -23 -25 -6 -32 -5 -27 3 5 8 1 10 -10 5 -11 -4
-13 -8 -6 -11 19 -6 14 -16 -18 -36 l-31 -18 1 241 c1 150 -3 247 -9 258 -6
10 -11 13 -11 7 0 -8 -34 -11 -107 -11 l-108 0 85 7 85 7 -90 0 -91 0 4 -36z
m531 -640 c58 -28 76 -42 79 -60 4 -22 32 -51 32 -32 0 6 -4 11 -10 11 -5 0
-10 6 -10 13 1 6 11 -1 24 -16 30 -37 50 -121 43 -181 -8 -61 -36 -126 -53
-119 -6 2 -16 -2 -20 -9 -8 -13 -10 -18 -13 -38 0 -5 -8 -6 -18 -3 -12 5 -14
3 -8 -7 6 -10 3 -12 -13 -8 -13 4 -20 2 -19 -5 3 -14 -126 -42 -131 -28 -2 5
-10 7 -18 4 -8 -3 -39 7 -70 21 -42 20 -54 31 -50 42 5 12 2 15 -9 10 -9 -3
-13 -2 -10 4 3 6 1 10 -5 10 -7 0 -10 51 -9 159 l1 159 33 28 c56 47 112 65
179 58 32 -3 66 -9 75 -13z"/>
<path d="M5848 3584 c6 -3 10 -9 8 -12 -2 -4 7 -7 19 -7 29 0 20 10 -15 19
-14 3 -19 3 -12 0z"/>
<path d="M5948 3583 c7 -3 16 -2 19 1 4 3 -2 6 -13 5 -11 0 -14 -3 -6 -6z"/>
<path d="M5780 3570 l-25 -8 25 -1 c14 0 32 4 40 9 13 9 13 10 0 9 -8 -1 -26
-5 -40 -9z"/>
<path d="M6005 3562 c6 -4 19 -24 29 -44 11 -21 26 -38 34 -38 12 0 11 4 -4
18 -11 9 -25 29 -32 45 -6 15 -17 27 -24 27 -8 0 -9 -3 -3 -8z"/>
<path d="M5733 3545 c-7 -7 -18 -15 -25 -18 -7 -2 -10 -7 -7 -11 3 -4 17 2 30
13 13 11 22 21 19 24 -3 3 -10 -1 -17 -8z"/>
<path d="M5726 3501 c-6 -10 33 -23 46 -15 4 3 8 11 8 17 0 7 -4 6 -11 -3 -8
-11 -12 -12 -16 -2 -5 14 -19 16 -27 3z"/>
<path d="M6101 3444 c0 -11 3 -14 6 -6 3 7 2 16 -1 19 -3 4 -6 -2 -5 -13z"/>
<path d="M6100 3360 c0 -35 2 -61 4 -59 8 7 10 108 3 115 -4 4 -7 -21 -7 -56z"/>
<path d="M5707 3229 c7 -7 15 -10 18 -7 3 3 -2 9 -12 12 -14 6 -15 5 -6 -5z"/>
<path d="M6055 3230 c-3 -6 1 -7 9 -4 18 7 21 14 7 14 -6 0 -13 -4 -16 -10z"/>
<path d="M5765 3220 c3 -5 8 -10 11 -10 2 0 4 5 4 10 0 6 -5 10 -11 10 -5 0
-7 -4 -4 -10z"/>
<path d="M5766 3186 c6 -16 3 -17 -17 -12 -21 6 -22 6 -6 -5 25 -15 48 4 28
24 -10 10 -11 8 -5 -7z"/>
<path d="M5845 3150 c19 -8 103 -14 94 -6 -2 2 -29 6 -59 9 -34 3 -47 2 -35
-3z"/>
<path d="M7387 4273 c-4 -3 -7 -11 -7 -17 0 -6 5 -5 12 2 6 6 9 14 7 17 -3 3
-9 2 -12 -2z"/>
<path d="M7445 4273 c-11 -3 -23 -8 -28 -12 -4 -4 -8 -309 -10 -677 l-2 -669
-5 645 -5 645 -5 -648 c-5 -619 -4 -647 13 -647 10 0 15 -4 12 -10 -3 -5 -1
-10 4 -10 6 0 11 5 11 11 0 6 35 10 98 9 117 -2 131 2 124 38 l-5 27 24 -21
c13 -12 49 -34 79 -49 52 -27 58 -27 150 -20 52 4 111 7 130 7 22 -1 30 1 22
7 -9 6 2 16 40 34 29 14 62 34 74 44 52 46 67 57 59 43 -4 -8 -5 -12 0 -8 4 4
14 3 22 -3 9 -9 13 -8 13 0 0 6 -4 11 -9 11 -5 0 -12 8 -15 17 -4 10 -4 14 0
10 4 -4 14 7 21 25 8 18 17 28 21 22 4 -5 17 -11 29 -11 26 -2 42 33 23 51 -9
8 -11 6 -6 -11 4 -12 2 -24 -4 -28 -5 -3 -10 -1 -10 5 0 6 -4 8 -10 5 -5 -3
-10 1 -10 9 0 9 5 16 11 16 6 0 9 7 5 15 -3 8 1 20 8 27 16 16 15 15 22 165 5
100 3 133 -12 180 -23 76 -90 183 -136 218 -20 16 -34 33 -31 38 3 6 1 7 -5 3
-14 -9 -52 15 -52 32 0 7 -8 12 -17 11 -10 -2 -54 5 -98 15 -93 21 -173 17
-242 -14 l-44 -19 3 22 c2 18 9 22 33 20 20 -2 25 1 16 6 -11 7 -11 9 0 14 8
3 -1 3 -18 0 l-33 -5 -1 188 c0 104 -3 197 -7 206 -4 10 -5 -82 -4 -203 4
-228 1 -263 -20 -272 -10 -3 -13 47 -11 239 l2 244 -102 2 -102 2 85 6 85 6
-80 1 c-44 0 -89 -1 -100 -4z m420 -663 c-4 -7 2 -9 19 -4 14 3 34 3 43 -2 22
-9 29 -11 46 -13 8 -1 8 -4 -3 -12 -12 -9 -12 -10 3 -5 21 7 51 -12 53 -31 2
-28 4 -33 15 -33 8 0 7 6 -2 17 -12 14 -12 15 0 9 19 -12 42 -72 35 -93 -4
-13 -3 -15 4 -5 14 20 22 -8 22 -76 0 -61 -32 -148 -50 -137 -5 3 -8 0 -5 -7
3 -7 -11 -26 -30 -41 -79 -63 -195 -78 -279 -37 -54 28 -63 37 -47 53 6 6 11
15 11 21 0 5 -7 1 -15 -10 -25 -33 -30 -3 -25 145 3 78 2 141 -2 141 -5 0 -8
8 -8 18 0 28 51 70 111 92 59 21 114 26 104 10z"/>
<path d="M7818 3603 c7 -3 16 -2 19 1 4 3 -2 6 -13 5 -11 0 -14 -3 -6 -6z"/>
<path d="M7870 3590 c-11 -7 -5 -9 20 -5 28 4 31 3 15 -5 -17 -8 -17 -9 -2 -7
10 1 19 7 20 12 3 14 -35 17 -53 5z"/>
<path d="M7766 3575 c-19 -15 -19 -15 3 -15 12 0 20 4 17 9 -4 5 0 12 6 14 7
3 9 6 3 6 -5 0 -19 -6 -29 -14z"/>
<path d="M7710 3570 c-8 -5 -10 -10 -5 -10 6 0 17 5 25 10 8 5 11 10 5 10 -5
0 -17 -5 -25 -10z"/>
<path d="M7818 3573 c6 -2 18 -2 25 0 6 3 1 5 -13 5 -14 0 -19 -2 -12 -5z"/>
<path d="M7685 3385 c0 -84 4 -151 8 -148 9 6 8 275 -1 290 -4 6 -7 -58 -7
-142z"/>
<path d="M8020 3460 c0 -29 4 -40 15 -40 9 0 15 9 15 23 0 18 -2 19 -11 7 -8
-12 -9 -7 -6 18 2 17 0 32 -5 32 -4 0 -8 -18 -8 -40z"/>
<path d="M8031 3294 c0 -11 3 -14 6 -6 3 7 2 16 -1 19 -3 4 -6 -2 -5 -13z"/>
<path d="M8016 3225 c-9 -26 -7 -32 5 -12 6 10 9 21 6 23 -2 3 -7 -2 -11 -11z"/>
<path d="M7972 3180 c-7 -11 -8 -20 -3 -20 9 0 24 30 18 36 -1 2 -8 -6 -15
-16z"/>
<path d="M7773 3141 c0 -10 10 -11 41 -5 23 4 60 7 84 6 23 0 42 3 42 9 0 5
-35 8 -83 7 -62 -2 -83 -6 -84 -17z"/>
<path d="M4340 4136 c0 -21 6 -36 15 -40 9 -3 15 0 15 9 0 8 -4 15 -10 15 -5
0 -10 10 -9 23 0 21 1 21 9 2 8 -19 9 -19 9 3 1 13 -5 22 -14 22 -10 0 -15
-10 -15 -34z"/>
<path d="M4356 4061 c-4 -7 -5 -15 -2 -18 9 -9 19 4 14 18 -4 11 -6 11 -12 0z"/>
<path d="M4724 3989 c-3 -6 -2 -15 3 -20 5 -5 9 -1 9 11 0 23 -2 24 -12 9z"/>
<path d="M4628 3919 c-3 -8 -30 -15 -72 -18 -6 -1 -5 -6 1 -12 8 -8 17 -8 33
1 12 6 33 9 46 6 17 -5 24 -2 24 8 0 16 -27 29 -32 15z"/>
<path d="M4430 3900 c0 -5 5 -10 10 -10 6 0 10 5 10 10 0 6 -4 10 -10 10 -5 0
-10 -4 -10 -10z"/>
<path d="M4475 3880 c3 -5 8 -10 11 -10 2 0 4 5 4 10 0 6 -5 10 -11 10 -5 0
-7 -4 -4 -10z"/>
<path d="M3660 3871 c0 -4 -10 -13 -22 -20 -22 -11 -22 -11 2 -4 14 4 45 7 70
6 25 0 36 1 25 4 -11 2 -32 8 -47 13 -16 5 -28 5 -28 1z"/>
<path d="M3895 3870 c-7 -12 2 -12 30 0 19 8 19 9 -2 9 -12 1 -25 -3 -28 -9z"/>
<path d="M4050 3870 c0 -5 5 -10 10 -10 6 0 10 5 10 10 0 6 -4 10 -10 10 -5 0
-10 -4 -10 -10z"/>
<path d="M4660 3865 c0 -8 4 -15 10 -15 5 0 7 7 4 15 -4 8 -8 15 -10 15 -2 0
-4 -7 -4 -15z"/>
<path d="M4688 3873 c7 -3 16 -2 19 1 4 3 -2 6 -13 5 -11 0 -14 -3 -6 -6z"/>
<path d="M4760 3869 c0 -6 7 -9 15 -5 13 5 14 2 5 -15 -6 -11 -9 -28 -7 -37 3
-12 6 -9 11 11 5 15 14 27 22 27 22 0 16 17 -8 24 -32 8 -38 7 -38 -5z"/>
<path d="M5088 3873 c7 -3 16 -2 19 1 4 3 -2 6 -13 5 -11 0 -14 -3 -6 -6z"/>
<path d="M5131 3873 c-1 -7 11 -19 27 -27 15 -8 21 -15 14 -16 -22 0 -86 -33
-95 -47 -11 -18 -27 -16 -27 2 0 8 3 15 8 15 4 0 12 11 18 23 12 28 1 41 -36
44 l-25 2 26 -12 c18 -8 24 -17 20 -29 -6 -18 -34 -10 -31 8 0 5 -7 10 -17 12
-15 3 -16 1 -3 -7 11 -8 -15 -11 -92 -11 -96 0 -108 -2 -118 -19 -10 -20 -15
-866 -5 -893 4 -10 35 -13 131 -12 69 1 130 6 135 11 10 10 8 544 -3 596 -11
55 83 104 200 104 66 0 72 -2 73 -21 0 -21 1 -21 9 -1 5 11 9 16 10 10 0 -5 5
-2 11 8 6 10 11 63 12 117 l2 100 -28 11 c-16 7 -54 10 -92 7 -36 -3 -63 -2
-60 2 3 5 -5 6 -17 3 -19 -4 -20 -3 -8 7 13 10 11 11 -7 7 -12 -3 -24 0 -27 7
-3 8 -5 7 -5 -1z m-324 -736 c-1 -122 -2 -22 -2 223 0 245 1 345 2 222 2 -122
2 -322 0 -445z m250 -79 c-1 -79 -3 -15 -3 142 0 157 2 221 3 143 2 -79 2
-207 0 -285z"/>
<path d="M5747 3869 c18 -5 35 -14 38 -19 3 -6 14 -10 23 -10 13 0 14 2 3 9
-11 7 -11 10 0 15 8 3 4 3 -8 1 -12 -3 -24 -1 -28 5 -3 5 -18 10 -33 9 -26 -1
-26 -1 5 -10z"/>
<path d="M5850 3870 c8 -5 20 -10 25 -10 6 0 3 5 -5 10 -8 5 -19 10 -25 10 -5
0 -3 -5 5 -10z"/>
<path d="M5955 3870 c3 -6 20 -10 38 -10 18 1 49 -2 70 -6 21 -3 37 -2 37 3 0
5 -15 10 -32 10 -18 1 -52 4 -76 7 -27 3 -41 2 -37 -4z"/>
<path d="M6810 3870 c-8 -5 -10 -10 -5 -10 6 0 17 5 25 10 8 5 11 10 5 10 -5
0 -17 -5 -25 -10z"/>
<path d="M6981 3876 c2 -2 29 -6 59 -9 36 -4 48 -3 35 3 -19 8 -103 14 -94 6z"/>
<path d="M7795 3870 c28 -12 37 -12 30 0 -3 6 -16 10 -28 9 -21 0 -21 -1 -2
-9z"/>
<path d="M7930 3870 c-8 -5 -10 -10 -5 -10 6 0 17 5 25 10 8 5 11 10 5 10 -5
0 -17 -5 -25 -10z"/>
<path d="M8010 3863 l-45 -12 45 2 c25 1 56 -2 70 -6 23 -7 23 -7 5 4 -11 7
-22 15 -25 18 -3 4 -25 1 -50 -6z"/>
<path d="M3969 3862 c11 -8 11 -10 0 -14 -8 -3 1 -5 18 -4 31 1 49 16 19 16
-8 0 -23 3 -33 6 -13 4 -15 3 -4 -4z"/>
<path d="M4277 3855 c-3 -7 7 -9 29 -7 42 5 43 8 4 14 -16 2 -31 -1 -33 -7z"/>
<path d="M4727 3864 c-4 -4 -7 -12 -7 -18 0 -6 5 -4 11 4 8 11 9 7 5 -17 -3
-19 -1 -33 4 -33 6 0 11 -165 13 -437 l3 -438 -1 462 c0 441 -4 501 -28 477z"/>
<path d="M6747 3858 c-15 -11 -11 -13 28 -14 43 -1 44 -1 19 13 -32 16 -27 16
-47 1z"/>
<path d="M7115 3860 c-19 -7 -19 -8 -2 -15 19 -8 31 -2 26 13 -2 5 -13 6 -24
2z"/>
<path d="M4433 3853 c9 -2 23 -2 30 0 6 3 -1 5 -18 5 -16 0 -22 -2 -12 -5z"/>
<path d="M5718 3853 c7 -3 16 -2 19 1 4 3 -2 6 -13 5 -11 0 -14 -3 -6 -6z"/>
<path d="M6126 3835 c9 -14 21 -22 26 -19 5 3 0 15 -11 25 -28 26 -35 24 -15
-6z"/>
<path d="M6420 3840 c0 -11 2 -20 4 -20 2 0 6 9 9 20 3 11 1 20 -4 20 -5 0 -9
-9 -9 -20z"/>
<path d="M6884 3851 c-10 -10 -104 -29 -98 -19 3 4 0 8 -5 8 -6 0 -11 -7 -11
-15 0 -18 -36 -38 -52 -29 -6 4 -8 3 -4 -4 3 -6 2 -13 -3 -16 -9 -6 -33 48
-26 56 5 5 -196 -2 -213 -7 -10 -4 -12 -102 -12 -469 1 -417 2 -465 17 -470 9
-4 18 -4 21 -1 3 3 0 5 -7 5 -7 0 -9 5 -6 10 4 6 58 10 128 10 l122 0 -5 48
-4 47 -7 -45 c-3 -25 -7 82 -7 238 -2 245 0 282 13 282 8 0 15 5 15 11 0 6 -7
9 -15 5 -22 -8 -19 37 3 57 10 10 22 17 27 17 4 0 13 7 19 16 6 8 18 16 26 17
8 2 20 5 25 9 6 3 42 5 82 4 64 -1 76 -5 102 -30 45 -43 51 -87 51 -395 0
-218 3 -281 13 -281 8 0 7 -4 -3 -10 -13 -8 -12 -10 3 -10 9 0 17 5 17 10 0 6
42 10 106 10 l105 0 -3 353 -3 352 -25 40 c-58 94 -80 117 -141 147 -60 29
-230 63 -245 49z"/>
<path d="M3730 3834 c-30 -8 -67 -15 -82 -15 -16 0 -28 -6 -28 -12 0 -16 -38
-39 -51 -32 -5 4 -8 2 -7 -3 2 -5 -12 -21 -30 -37 -49 -41 -110 -137 -133
-208 -18 -54 -20 -80 -16 -199 3 -107 8 -140 20 -153 9 -8 14 -22 11 -30 -4
-8 -1 -15 5 -15 6 0 11 -7 11 -16 0 -8 -4 -12 -10 -9 -5 3 -10 1 -10 -5 0 -6
-5 -8 -10 -5 -6 4 -8 16 -4 28 5 17 3 19 -6 11 -19 -18 -3 -53 23 -51 12 0 25
5 28 9 3 4 16 -6 28 -23 13 -18 19 -29 12 -25 -7 5 -9 1 -5 -8 3 -9 1 -16 -5
-16 -6 0 -11 -5 -11 -11 0 -8 4 -9 13 0 8 6 18 7 22 3 5 -4 4 0 0 8 -7 12 -5
12 11 -1 24 -20 53 -44 79 -64 19 -16 19 -16 -5 -9 -14 4 -28 12 -32 18 -5 6
-8 2 -8 -11 0 -15 5 -21 14 -17 8 3 24 0 36 -6 15 -8 20 -8 16 -1 -9 14 -6 14
39 -5 30 -12 35 -18 24 -25 -10 -6 -3 -8 21 -7 19 0 78 -3 130 -7 87 -7 99 -6
138 14 24 12 48 19 54 15 6 -4 9 -3 6 2 -3 5 8 20 24 33 l30 24 -4 -24 c-2
-16 -9 -24 -20 -23 -10 1 -15 -3 -12 -8 3 -5 13 -7 21 -4 8 3 19 3 25 0 6 -4
55 -6 109 -5 64 1 99 -2 99 -8 0 -6 5 -11 11 -11 5 0 7 5 4 10 -3 6 2 10 12
10 17 0 18 22 18 449 0 247 -4 447 -8 444 -5 -3 -11 4 -14 16 -3 11 -10 18
-15 15 -12 -8 -192 -5 -216 3 -13 4 -14 3 -3 -5 9 -7 10 -12 2 -16 -6 -4 -11
-16 -11 -27 0 -17 -3 -18 -20 -9 -11 6 -21 21 -21 33 -1 15 -3 17 -6 5 -4 -15
-8 -15 -49 4 -60 26 -172 32 -244 12z m587 -697 c-1 -122 -2 -22 -2 223 0 245
1 345 2 222 2 -122 2 -322 0 -445z m-360 463 c62 -22 113 -63 113 -92 0 -10
-3 -18 -7 -18 -5 0 -6 -63 -3 -141 5 -148 0 -178 -25 -145 -8 11 -15 15 -15
10 0 -6 5 -15 11 -21 16 -16 7 -25 -47 -53 -84 -41 -200 -26 -279 37 -19 15
-33 34 -30 41 3 7 1 10 -5 7 -13 -8 -43 53 -37 76 3 11 1 19 -4 19 -10 0 -12
90 -3 115 6 13 9 14 16 3 7 -10 8 -8 4 5 -7 21 16 81 35 93 12 6 12 5 0 -9 -9
-11 -10 -17 -2 -17 11 0 13 5 15 33 2 19 32 38 53 31 15 -5 15 -4 3 5 -11 8
-11 11 -2 12 16 2 23 4 45 13 9 5 29 5 43 2 17 -5 23 -3 19 4 -10 16 41 12
102 -10z"/>
<path d="M3888 3603 c7 -3 16 -2 19 1 4 3 -2 6 -13 5 -11 0 -14 -3 -6 -6z"/>
<path d="M3797 3594 c-10 -10 2 -24 21 -23 14 0 14 2 -3 10 -15 7 -12 8 15 4
25 -4 31 -2 20 5 -17 11 -44 13 -53 4z"/>
<path d="M3928 3583 c6 -2 10 -9 6 -14 -3 -5 5 -9 17 -9 22 0 22 0 3 15 -10 8
-23 14 -29 14 -5 0 -4 -3 3 -6z"/>
<path d="M3878 3573 c6 -2 18 -2 25 0 6 3 1 5 -13 5 -14 0 -19 -2 -12 -5z"/>
<path d="M3990 3570 c8 -5 20 -10 25 -10 6 0 3 5 -5 10 -8 5 -19 10 -25 10 -5
0 -3 -5 5 -10z"/>
<path d="M4027 3527 c-8 -22 -8 -285 0 -290 4 -3 8 64 8 149 0 85 -1 154 -1
154 -1 0 -4 -6 -7 -13z"/>
<path d="M3687 3468 c3 -25 2 -30 -6 -18 -9 12 -11 11 -11 -7 0 -14 6 -23 15
-23 11 0 15 11 15 40 0 22 -4 40 -8 40 -5 0 -7 -15 -5 -32z"/>
<path d="M3668 3290 c-3 -16 -1 -35 4 -42 4 -8 8 4 8 30 0 49 -6 55 -12 12z"/>
<path d="M3690 3235 c0 -5 5 -17 10 -25 5 -8 10 -10 10 -5 0 6 -5 17 -10 25
-5 8 -10 11 -10 5z"/>
<path d="M3730 3194 c0 -13 18 -39 24 -34 2 3 -2 14 -10 24 -8 11 -14 16 -14
10z"/>
<path d="M3780 3151 c0 -6 19 -9 43 -9 23 1 60 -2 83 -6 31 -6 41 -5 41 5 -1
11 -22 15 -84 17 -48 1 -83 -2 -83 -7z"/>
<path d="M5120 3840 c0 -5 5 -10 11 -10 5 0 7 5 4 10 -3 6 -8 10 -11 10 -2 0
-4 -4 -4 -10z"/>
<path d="M4435 3374 l0 -464 28 0 c16 0 26 -4 22 -10 -3 -5 -1 -10 4 -10 6 0
11 5 11 10 0 6 39 10 98 10 l97 0 -5 457 -5 458 -113 2 c-63 1 -119 4 -125 6
-9 3 -12 -111 -12 -459z"/>
<path d="M5700 3830 c0 -5 5 -10 11 -10 5 0 7 5 4 10 -3 6 -8 10 -11 10 -2 0
-4 -4 -4 -10z"/>
<path d="M3535 3790 c-3 -5 -1 -10 4 -10 6 0 11 5 11 10 0 6 -2 10 -4 10 -3 0
-8 -4 -11 -10z"/>
<path d="M6215 3790 c3 -5 8 -10 11 -10 2 0 4 5 4 10 0 6 -5 10 -11 10 -5 0
-7 -4 -4 -10z"/>
<path d="M8170 3790 c0 -5 5 -10 11 -10 5 0 7 5 4 10 -3 6 -8 10 -11 10 -2 0
-4 -4 -4 -10z"/>
<path d="M3490 3780 c0 -5 4 -10 9 -10 6 0 13 5 16 10 3 6 -1 10 -9 10 -9 0
-16 -4 -16 -10z"/>
<path d="M8205 3780 c3 -5 10 -10 16 -10 5 0 9 5 9 10 0 6 -7 10 -16 10 -8 0
-12 -4 -9 -10z"/>
<path d="M3464 3732 c-1 -20 1 -27 3 -14 4 22 23 32 23 12 0 -5 5 -10 10 -10
10 0 -20 49 -30 50 -3 0 -6 -17 -6 -38z"/>
<path d="M8227 3745 c-10 -14 -13 -25 -7 -25 5 0 10 5 10 10 0 20 19 10 23
-12 2 -13 4 -6 3 14 -1 44 -5 46 -29 13z"/>
<path d="M3510 3749 c0 -5 5 -7 10 -4 6 3 10 8 10 11 0 2 -4 4 -10 4 -5 0 -10
-5 -10 -11z"/>
<path d="M8195 3750 c3 -5 8 -10 11 -10 2 0 4 5 4 10 0 6 -5 10 -11 10 -5 0
-7 -4 -4 -10z"/>
<path d="M4425 3360 c0 -201 1 -283 2 -182 2 100 2 264 0 365 -1 100 -2 18 -2
-183z"/>
<path d="M4715 3360 c0 -201 1 -283 2 -182 2 100 2 264 0 365 -1 100 -2 18 -2
-183z"/>
<path d="M6281 3711 c-8 -5 -9 -11 -3 -15 5 -3 12 1 16 9 6 17 6 18 -13 6z"/>
<path d="M6315 3709 c-4 -6 -5 -12 -2 -15 2 -3 7 2 10 11 7 17 1 20 -8 4z"/>
<path d="M7250 3710 c0 -5 6 -10 14 -10 8 0 18 5 21 10 3 6 -3 10 -14 10 -12
0 -21 -4 -21 -10z"/>
<path d="M7285 3690 c-3 -5 -2 -18 4 -27 7 -14 9 -12 8 10 -2 30 -3 31 -12 17z"/>
<path d="M3400 3629 c0 -5 5 -7 10 -4 6 3 10 8 10 11 0 2 -4 4 -10 4 -5 0 -10
-5 -10 -11z"/>
<path d="M8305 3630 c3 -5 8 -10 11 -10 2 0 4 5 4 10 0 6 -5 10 -11 10 -5 0
-7 -4 -4 -10z"/>
<path d="M6881 3590 c24 -19 92 -32 116 -23 29 11 -11 23 -57 17 -30 -3 -40
-2 -31 4 9 7 5 11 -19 14 l-32 5 23 -17z m106 -16 c-3 -3 -12 -4 -19 -1 -8 3
-5 6 6 6 11 1 17 -2 13 -5z"/>
<path d="M5152 3591 c-11 -7 -10 -10 3 -15 24 -9 65 -8 65 2 0 5 -15 7 -32 5
-27 -3 -29 -1 -13 6 14 7 15 10 5 10 -8 0 -21 -3 -28 -8z"/>
<path d="M6791 3591 c-8 -5 -9 -11 -3 -15 5 -3 12 1 16 9 6 17 6 18 -13 6z"/>
<path d="M5300 3575 c0 -8 8 -15 18 -14 10 0 12 3 4 6 -6 2 -10 9 -6 14 3 5 0
9 -5 9 -6 0 -11 -7 -11 -15z"/>
<path d="M5350 3580 c0 -5 7 -7 15 -4 8 4 15 8 15 10 0 2 -7 4 -15 4 -8 0 -15
-4 -15 -10z"/>
<path d="M6835 3580 c11 -5 27 -9 35 -9 13 -1 13 0 0 9 -8 5 -24 9 -35 9 l-20
0 20 -9z"/>
<path d="M5106 3572 c-2 -4 4 -8 14 -8 10 0 16 4 14 8 -3 4 -9 8 -14 8 -5 0
-11 -4 -14 -8z"/>
<path d="M6818 3563 c7 -3 16 -2 19 1 4 3 -2 6 -13 5 -11 0 -14 -3 -6 -6z"/>
<path d="M7321 3544 c0 -11 3 -14 6 -6 3 7 2 16 -1 19 -3 4 -6 -2 -5 -13z"/>
<path d="M6994 3530 c3 -14 6 -31 6 -37 0 -7 5 -13 10 -13 12 0 2 50 -13 65
-6 7 -8 2 -3 -15z"/>
<path d="M7361 3494 c0 -11 3 -14 6 -6 3 7 2 16 -1 19 -3 4 -6 -2 -5 -13z"/>
<path d="M3310 3471 c0 -6 5 -13 10 -16 6 -3 10 1 10 9 0 9 -4 16 -10 16 -5 0
-10 -4 -10 -9z"/>
<path d="M5134 3200 c0 -157 2 -221 3 -142 2 78 2 206 0 285 -1 78 -3 14 -3
-143z"/>
<path d="M7310 3200 c0 -180 4 -280 10 -280 6 0 10 100 10 280 0 180 -4 280
-10 280 -6 0 -10 -100 -10 -280z"/>
<path d="M8390 3464 c0 -8 5 -12 10 -9 6 3 10 10 10 16 0 5 -4 9 -10 9 -5 0
-10 -7 -10 -16z"/>
<path d="M3352 3355 c0 -55 3 -72 8 -55 11 33 11 90 0 115 -6 13 -8 -7 -8 -60z"/>
<path d="M8354 3394 c-3 -19 -2 -54 4 -77 9 -40 10 -39 11 36 1 83 -4 98 -15
41z"/>
<path d="M7034 3160 c0 -91 2 -128 3 -82 2 45 2 119 0 165 -1 45 -3 8 -3 -83z"/>
<path d="M6381 3174 c0 -11 3 -14 6 -6 3 7 2 16 -1 19 -3 4 -6 -2 -5 -13z"/>
<path d="M6322 3084 c-7 -8 -8 -14 -3 -14 10 0 25 19 20 25 -2 1 -10 -3 -17
-11z"/>
<path d="M8141 2947 c-20 -12 -29 -23 -22 -25 8 -3 17 1 21 8 4 7 15 10 24 7
11 -5 16 -1 16 13 0 11 -1 20 -2 19 -2 0 -18 -10 -37 -22z"/>
<path d="M4045 2940 c-3 -5 -1 -10 4 -10 6 0 11 5 11 10 0 6 -2 10 -4 10 -3 0
-8 -4 -11 -10z"/>
<path d="M6177 2943 c-15 -15 -5 -23 29 -23 21 0 33 4 29 10 -3 6 -18 7 -32 4
-18 -5 -24 -3 -19 5 8 12 3 15 -7 4z"/>
<path d="M7660 2941 c0 -6 5 -11 11 -11 7 0 -3 -14 -21 -31 l-33 -32 -118 5
c-96 4 -119 3 -119 -8 0 -8 5 -14 11 -14 5 0 8 3 6 8 -3 4 46 5 109 4 75 -3
120 0 128 7 10 9 17 8 28 -2 9 -9 31 -13 67 -11 67 4 73 9 21 18 -27 4 -39 10
-34 18 5 7 3 8 -6 3 -10 -6 -12 -4 -7 9 4 11 3 15 -4 10 -6 -3 -8 -17 -5 -30
5 -18 3 -22 -9 -18 -17 7 -20 35 -5 50 8 8 6 15 -5 24 -10 8 -15 9 -15 1z"/>
<path d="M5381 2899 c0 -15 5 -31 12 -36 16 -14 67 -22 67 -12 0 4 35 10 78
12 56 3 51 4 -19 2 -100 -2 -123 5 -132 40 -4 16 -5 14 -6 -6z"/>
<path d="M4006 2889 c3 -5 -14 -12 -38 -15 -30 -5 -37 -9 -24 -14 30 -10 74 1
79 19 2 10 -1 18 -9 18 -7 0 -11 -4 -8 -8z"/>
<path d="M4678 2893 c6 -2 18 -2 25 0 6 3 1 5 -13 5 -14 0 -19 -2 -12 -5z"/>
<path d="M4712 2881 c-31 -18 -31 -19 -10 -25 30 -8 43 -8 35 0 -3 4 -2 15 4
25 12 23 12 23 -29 0z"/>
<path d="M7268 2893 c7 -3 16 -2 19 1 4 3 -2 6 -13 5 -11 0 -14 -3 -6 -6z"/>
<path d="M3620 2882 c0 -14 26 -22 68 -21 l37 1 -35 8 c-19 4 -43 11 -52 15
-10 4 -18 3 -18 -3z"/>
<path d="M4068 2879 c10 -11 44 -14 137 -14 67 0 121 -3 118 -7 -2 -5 1 -8 6
-8 6 0 11 6 11 13 0 10 -29 13 -122 12 -68 0 -132 4 -143 9 -17 8 -18 7 -7 -5z"/>
<path d="M8077 2883 c-4 -3 -24 -9 -44 -13 l-38 -8 37 -1 c41 -1 68 7 68 20 0
11 -14 12 -23 2z"/>
<path d="M3738 2873 c7 -3 16 -2 19 1 4 3 -2 6 -13 5 -11 0 -14 -3 -6 -6z"/>
<path d="M4430 2867 c12 -10 42 -12 130 -7 l115 6 -98 4 c-58 3 -102 1 -109
-5 -7 -7 -12 -6 -15 3 -3 6 -12 12 -21 12 -14 0 -14 -2 -2 -13z"/>
<path d="M4940 2870 l-45 -7 42 -1 c23 -1 45 3 48 8 3 6 5 9 3 8 -2 0 -23 -4
-48 -8z"/>
<path d="M5007 2866 c-16 -13 -15 -14 10 -19 32 -6 43 -1 43 19 0 18 -29 18
-53 0z"/>
<path d="M5645 2870 c-22 -9 -18 -11 22 -13 15 -1 28 4 31 11 4 14 -23 15 -53
2z"/>
<path d="M5825 2873 c11 -3 25 -10 30 -15 7 -7 2 -8 -15 -3 -14 3 -34 9 -45
11 -18 4 -18 4 -3 -6 19 -12 221 -21 238 -10 8 5 7 9 -5 13 -10 5 -14 3 -9 -5
5 -8 -3 -9 -32 -3 -21 4 -58 9 -82 10 -23 1 -46 5 -49 9 -3 3 -16 5 -27 5 -20
-1 -20 -1 -1 -6z"/>
<path d="M6060 2870 c-9 -6 -10 -10 -3 -10 6 0 18 -3 27 -6 11 -4 16 -1 16 10
0 18 -17 21 -40 6z"/>
<path d="M6601 2871 c-81 -5 -105 -9 -108 -21 -4 -12 -3 -13 5 -1 8 10 35 12
126 9 91 -3 116 -1 116 9 0 7 -8 12 -17 11 -10 -1 -65 -4 -122 -7z"/>
<path d="M7968 2873 c7 -3 16 -2 19 1 4 3 -2 6 -13 5 -11 0 -14 -3 -6 -6z"/>
<path d="M3750 2860 c-24 -8 -24 -8 5 -8 17 1 64 -1 105 -4 41 -3 58 -3 38 -1
-21 2 -38 8 -38 14 0 11 -75 10 -110 -1z"/>
<path d="M4035 2860 c-3 -5 -1 -10 4 -10 6 0 11 5 11 10 0 6 -2 10 -4 10 -3 0
-8 -4 -11 -10z"/>
<path d="M7068 2863 c7 -3 16 -2 19 1 4 3 -2 6 -13 5 -11 0 -14 -3 -6 -6z"/>
<path d="M7120 2862 c0 -4 33 -6 73 -4 113 5 121 9 20 11 -51 0 -93 -3 -93 -7z"/>
<path d="M7860 2861 c0 -6 -17 -12 -37 -14 -21 -2 -4 -2 37 1 41 3 89 5 105 4
29 0 29 0 5 8 -35 11 -110 12 -110 1z"/>
<path d="M3663 2843 c9 -2 25 -2 35 0 9 3 1 5 -18 5 -19 0 -27 -2 -17 -5z"/>
<path d="M8023 2843 c9 -2 25 -2 35 0 9 3 1 5 -18 5 -19 0 -27 -2 -17 -5z"/>
</g>
</svg>
